<?xml version="1.0" encoding="UTF-8" standalone="no"?>
<!-- Created with Inkscape (http://www.inkscape.org/) -->
<svg
   xmlns:svg="http://www.w3.org/2000/svg"
   xmlns="http://www.w3.org/2000/svg"
   version="1.0"
   width="634.29999"
   height="634.29999"
   id="svg2">
  <defs
     id="defs4">
    <clipPath
       id="clipPath3244">
      <path
         d="M 0,0 L 595.276,0 L 595.276,841.89 L 0,841.89 L 0,0 z"
         id="path3246" />
    </clipPath>
    <clipPath
       id="clipPath3194">
      <path
         d="M 471.26,799.37 C 461.475,799.37 453.543,791.438 453.543,781.654 L 453.543,781.654 L 453.543,732.933 C 453.543,730.487 455.526,728.504 457.972,728.504 L 457.972,728.504 L 506.693,728.504 C 516.478,728.504 524.409,736.435 524.409,746.221 L 524.409,746.221 L 524.409,794.941 C 524.409,797.386 522.427,799.37 519.98,799.37 L 519.98,799.37 L 471.26,799.37 z"
         id="path3196" />
    </clipPath>
    <clipPath
       id="clipPath3182">
      <path
         d="M 453.543,728.504 L 524.409,728.504 L 524.409,799.37 L 453.543,799.37 L 453.543,728.504 z"
         id="path3184" />
    </clipPath>
    <clipPath
       id="clipPath3162">
      <path
         d="M 70.866,42.52 L 90.708,42.52 L 90.708,62.362 L 70.866,62.362 L 70.866,42.52 z"
         id="path3164" />
    </clipPath>
    <clipPath
       id="clipPath2840">
      <path
         d="M 0,0 L 595.276,0 L 595.276,841.89 L 0,841.89 L 0,0 z"
         id="path2842" />
    </clipPath>
    <clipPath
       id="clipPath2510">
      <path
         d="M 0,0 L 595.276,0 L 595.276,841.89 L 0,841.89 L 0,0 z"
         id="path2512" />
    </clipPath>
    <clipPath
       id="clipPath2418">
      <path
         d="M 0,0 L 595.276,0 L 595.276,841.89 L 0,841.89 L 0,0 z"
         id="path2420" />
    </clipPath>
  </defs>
  <g
     transform="translate(-4.2801477,-5.2137886)"
     id="layer1">
    <g
       transform="matrix(6.934742,0,0,6.934742,-3992.2583,-549.59993)"
       id="g5028">
      <g
         transform="matrix(1.25,0,0,-1.25,583.28522,170.0297)"
         id="g3186">
        <path
           d="M 0,0 C -2.446,0 -4.429,1.982 -4.429,4.429 L -4.429,53.149 C -4.429,62.934 3.503,70.866 13.287,70.866 L 62.008,70.866 C 64.454,70.866 66.437,68.883 66.437,66.437 L 66.437,17.716 C 66.437,7.931 58.505,0 48.72,0 L 0,0 z"
           id="path3188"
           style="fill:#f9a720;fill-opacity:1;fill-rule:nonzero;stroke:none" />
      </g>
      <g
         transform="matrix(1.25,0,0,-1.25,631.6021,109.03682)"
         id="g3198">
        <path
           d="M 0,0 C 0,-0.724 -0.583,-1.364 -1.306,-1.364 C -2.057,-1.364 -2.668,-0.752 -2.668,0 C -2.668,0.724 -2.057,1.336 -1.334,1.336 C -0.611,1.336 0,0.752 0,0"
           id="path3200"
           style="fill:#ffffff;fill-opacity:1;fill-rule:nonzero;stroke:none" />
      </g>
      <g
         transform="matrix(1.25,0,0,-1.25,600.03635,125.48282)"
         id="g3202">
        <path
           d="M 0,0 C 0,-2.721 -1.87,-4.358 -4.908,-4.358 C -5.519,-4.358 -6.06,-4.327 -6.609,-4.254 L -6.847,-4.22 C -7.512,-4.117 -8.809,-3.74 -9.014,-3.689 C -9.257,-3.626 -9.388,-3.1 -9.313,-2.802 C -9.234,-2.488 -8.971,-2.153 -8.63,-2.187 L -8.284,-2.241 C -7.126,-2.477 -6.256,-2.574 -5.434,-2.574 C -3.418,-2.574 -2.279,-1.754 -2.279,-0.292 C -2.279,0.878 -2.746,1.375 -4.587,1.96 C -6.983,2.721 -8.969,3.511 -8.969,5.968 C -8.969,8.485 -7.216,10.006 -4.441,10.006 C -3.418,10.006 -2.162,9.772 -0.76,9.275 C -0.13,9.054 -0.403,7.638 -1.139,7.783 C -2.425,8.075 -3.477,8.222 -4.236,8.222 C -5.814,8.222 -6.749,7.52 -6.749,6.203 C -6.749,3.043 0,4.827 0,0"
           id="path3204"
           style="fill:#ffffff;fill-opacity:1;fill-rule:nonzero;stroke:none" />
      </g>
      <g
         transform="matrix(1.25,0,0,-1.25,655.25822,122.22757)"
         id="g3206">
        <path
           d="M 0,0 L -8.823,0 L -8.823,-0.497 C -8.823,-3.54 -7.744,-5.031 -5.438,-5.107 C -3.702,-5.164 -0.974,-4.124 -0.974,-4.124 C -0.631,-4.025 -0.43,-4.22 -0.26,-4.464 C -0.033,-4.79 0.004,-5.4 -0.332,-5.53 L -0.714,-5.73 C -3.3,-6.901 -4.225,-7.021 -5.784,-7.021 C -9.057,-7.021 -11.16,-4.476 -11.16,-0.351 C -11.16,4.447 -8.94,7.402 -5.288,7.402 C -1.811,7.402 0,5.179 0,0.731 L 0,0 z M -2.183,1.667 C -2.183,4.447 -3.119,5.676 -5.018,5.676 C -7.092,5.676 -8.437,4.213 -8.67,1.433 L -2.183,1.667 z"
           id="path3208"
           style="fill:#ffffff;fill-opacity:1;fill-rule:nonzero;stroke:none" />
      </g>
      <g
         transform="matrix(1.25,0,0,-1.25,628.61447,113.8572)"
         id="g3210">
        <path
           d="M 0,0 C 0,0.409 0.64,0.712 1.081,0.712 C 1.527,0.712 2.161,0.409 2.161,0 L 2.161,-12.775 C 2.161,-13.184 1.527,-13.486 1.081,-13.486 C 0.64,-13.486 0,-13.184 0,-12.775 L 0,0 z"
           id="path3212"
           style="fill:#ffffff;fill-opacity:1;fill-rule:nonzero;stroke:none" />
      </g>
      <g
         transform="matrix(1.25,0,0,-1.25,612.19997,118.99582)"
         id="g3214">
        <path
           d="M 0,0 C 0.008,1.692 -0.127,2.915 -1.919,2.915 C -2.707,2.915 -3.321,2.769 -5.308,2.037 L -5.316,-8.664 C -5.316,-9.073 -5.952,-9.375 -6.397,-9.375 C -6.839,-9.375 -7.478,-9.073 -7.478,-8.664 L -7.478,4.111 C -7.478,4.519 -6.839,4.823 -6.397,4.823 C -5.952,4.823 -5.316,4.519 -5.316,4.111 L -5.308,3.411 C -3.326,4.358 -2.084,4.816 -1.042,4.816 C 0.302,4.816 1.295,4.29 1.763,3.237 C 2.902,3.793 5.093,4.816 6.438,4.816 C 9.564,4.816 9.651,2.447 9.651,-0.128 L 9.651,-7.463 C 9.651,-10.45 11.764,-12.232 14.218,-12.232 C 16.672,-12.232 18.785,-10.45 18.785,-7.463 L 18.771,10.548 C 18.774,10.969 19.413,11.272 19.855,11.272 C 20.3,11.272 20.936,10.969 20.936,10.56 L 20.958,-7.39 C 20.958,-11.328 17.872,-14.252 14.22,-14.252 C 10.566,-14.252 7.481,-11.328 7.481,-7.39 L 7.481,-0.83 C 7.481,1.277 7.635,2.915 5.561,2.915 C 4.597,2.915 4.012,2.739 2.055,1.978 C 2.23,1.306 2.171,0.575 2.171,-0.128 L 2.162,-8.664 C 2.162,-9.073 1.527,-9.375 1.081,-9.375 C 0.64,-9.375 0,-9.073 0,-8.664 L 0,0 z"
           id="path3216"
           style="fill:#ffffff;fill-opacity:1;fill-rule:nonzero;stroke:none" />
      </g>
      <g
         transform="matrix(1.25,0,0,-1.25,593.52785,157.44432)"
         id="g3218">
        <path
           d="M 0,0 C -0.695,-0.264 -1.019,-0.335 -1.343,-0.335 C -2.122,-0.335 -2.518,0.288 -2.518,1.655 C -2.518,2.926 -2.086,3.574 -1.295,3.574 C -0.947,3.574 -0.719,3.514 0,3.262 L 0,0 z M 1.175,-1.211 L 1.175,7.303 L 0,7.303 L 0,3.97 C -0.504,4.269 -1.079,4.593 -1.691,4.593 C -2.938,4.593 -3.765,3.418 -3.765,1.608 C -3.765,-0.226 -3.046,-1.343 -1.822,-1.343 C -1.259,-1.343 -0.611,-1.079 0.06,-0.695 L 0.06,-1.211 L 1.175,-1.211 z"
           id="path3220"
           style="fill:#ffffff;fill-opacity:1;fill-rule:evenodd;stroke:none" />
      </g>
      <path
         d="M 598.67597,151.8672 L 597.20597,151.8672 L 597.20597,158.9572 L 598.67597,158.9572 L 598.67597,151.8672 z M 598.81097,149.6047 C 598.81097,149.11095 598.42097,148.7197 597.94097,148.7197 C 597.44722,148.7197 597.05722,149.11095 597.05722,149.6047 C 597.05722,150.0997 597.46222,150.48845 597.95597,150.48845 C 598.43597,150.48845 598.81097,150.08345 598.81097,149.6047"
         id="path3222"
         style="fill:#ffffff;fill-opacity:1;fill-rule:evenodd;stroke:none" />
      <g
         transform="matrix(1.25,0,0,-1.25,604.60572,153.0822)"
         id="g3224">
        <path
           d="M 0,0 L 0,1.043 C 0,1.043 -0.132,1.055 -0.252,1.055 C -0.791,1.055 -1.258,0.876 -1.859,0.431 L -1.859,0.972 L -2.973,0.972 L -2.973,-4.701 L -1.798,-4.701 L -1.798,-0.288 C -1.283,-0.06 -0.875,0.013 -0.371,0.013 C -0.264,0.013 -0.18,0.024 0,0"
           id="path3226"
           style="fill:#ffffff;fill-opacity:1;fill-rule:evenodd;stroke:none" />
      </g>
      <g
         transform="matrix(1.25,0,0,-1.25,609.85022,154.62645)"
         id="g3228">
        <path
           d="M 0,0 L -2.398,-0.096 C -2.302,0.96 -1.846,1.512 -1.079,1.512 C -0.36,1.512 -0.024,1.032 0,0 M 1.115,-0.778 L 1.115,-0.514 C 1.115,1.416 0.347,2.339 -1.175,2.339 C -2.746,2.339 -3.681,1.092 -3.681,-0.815 C -3.681,-2.565 -2.77,-3.597 -1.379,-3.597 C -0.696,-3.597 -0.12,-3.441 1.055,-2.925 L 0.839,-2.23 C -0.084,-2.529 -0.552,-2.625 -1.067,-2.625 C -1.954,-2.625 -2.434,-2.109 -2.434,-0.97 L -2.434,-0.778 L 1.115,-0.778 z"
           id="path3230"
           style="fill:#ffffff;fill-opacity:1;fill-rule:evenodd;stroke:none" />
      </g>
      <g
         transform="matrix(1.25,0,0,-1.25,618.17685,158.38832)"
         id="g3232">
        <path
           d="M 0,0 L -0.228,0.697 C -0.815,0.516 -1.355,0.409 -1.75,0.409 C -2.662,0.409 -3.165,1.068 -3.165,2.363 C -3.165,3.729 -2.662,4.401 -1.667,4.401 C -1.223,4.401 -0.947,4.365 -0.3,4.22 L -0.12,4.964 C -0.911,5.241 -1.535,5.348 -2.002,5.348 C -3.429,5.348 -4.412,4.185 -4.412,2.326 C -4.412,0.433 -3.525,-0.588 -2.158,-0.588 C -1.595,-0.588 -0.875,-0.383 0,0"
           id="path3234"
           style="fill:#ffffff;fill-opacity:1;fill-rule:nonzero;stroke:none" />
      </g>
      <g
         transform="matrix(1.25,0,0,-1.25,623.97472,158.65682)"
         id="g3236">
        <path
           d="M 0,0 L -0.18,0.719 C -0.636,0.599 -0.899,0.552 -1.175,0.552 C -1.427,0.552 -1.595,0.623 -1.678,0.767 C -1.763,0.911 -1.774,0.934 -1.774,1.895 L -1.774,4.627 L -0.216,4.627 L -0.216,5.431 L -1.774,5.431 L -1.774,6.966 L -2.95,6.966 L -2.95,5.396 L -3.909,5.275 L -3.909,4.627 L -2.95,4.627 L -2.95,1.558 C -2.95,0.791 -2.914,0.503 -2.782,0.251 C -2.578,-0.145 -2.17,-0.373 -1.619,-0.373 C -1.152,-0.373 -0.684,-0.264 0,0"
           id="path3238"
           style="fill:#ffffff;fill-opacity:1;fill-rule:nonzero;stroke:none" />
      </g>
    </g>
  </g>
</svg>
