<?xml version="1.0" encoding="UTF-8" standalone="no"?>
<!-- Created with Inkscape (http://www.inkscape.org/) by Marsupilami -->
<svg
   xmlns:svg="http://www.w3.org/2000/svg"
   xmlns="http://www.w3.org/2000/svg"
   version="1.0"
   width="1024"
   height="281"
   viewBox="0 0 132.625 36.4375"
   id="svg2562">
  <defs
     id="defs2564" />
  <g
     transform="translate(-308.6875,-514.14343)"
     id="layer1">
    <path
       d="M 330.03125,514.14343 C 329.215,514.14343 328.8125,515.40343 328.8125,516.08093 C 328.8125,516.53218 329.00375,517.11219 329.53125,517.11218 C 330.3475,517.11218 330.75,515.81467 330.75,515.11218 C 330.75,514.68593 330.535,514.14343 330.03125,514.14343 z M 318.84375,514.76843 C 317.67625,514.76843 316.51,514.89346 315.34375,514.89343 C 314.7375,514.89343 314.0675,514.83094 313.4375,514.83093 C 313.20375,514.83093 312.87501,514.83844 312.875,515.20593 C 312.875,515.76593 314.28126,515.14343 314.28125,516.14343 C 314.28125,516.48593 314.125,516.89593 314.03125,517.23718 L 310.90625,528.70593 C 310.6025,529.82718 310.56624,530.28094 309.46875,530.54968 C 309.16625,530.59843 308.6875,530.62844 308.6875,531.01843 C 308.6875,531.21343 308.805,531.26845 308.96875,531.26843 C 309.645,531.26843 310.36251,531.17468 311.0625,531.17468 C 311.64625,531.17468 312.22906,531.20687 312.8125,531.23718 C 313.39594,531.26749 313.97875,531.29967 314.5625,531.29968 C 317.06,531.29968 318.97624,530.46846 320.5625,528.39343 C 322.2675,526.14718 323.5,522.79095 323.5,519.86218 C 323.5,518.42218 323.10501,516.9872 322.21875,515.98718 C 321.355,515.01093 320.12625,514.76845 318.84375,514.76843 z M 345,514.89343 L 345,531.17468 L 348.4375,531.17468 L 348.4375,523.42468 C 348.4125,522.17968 348.40624,521.41093 348.40625,521.14343 C 348.3575,520.16718 348.34125,519.68343 348.21875,518.48718 L 348.375,519.45593 L 348.53125,520.26843 L 348.78125,521.39343 L 351.15625,531.17468 L 353.53125,531.17468 L 355.84375,521.45593 L 356.03125,520.61218 L 356.3125,519.29968 L 356.46875,518.48718 C 356.2725,520.07468 356.21874,521.17967 356.21875,523.42468 L 356.21875,531.17468 L 359.65625,531.17468 L 359.65625,514.89343 L 354.75,514.89343 L 353.09375,521.36218 C 352.75,522.72843 352.59,523.61465 352.34375,525.73718 C 352.02375,523.51718 351.83376,522.5159 351.5625,521.39343 L 349.9375,514.89343 L 345,514.89343 z M 372.625,514.89343 L 372.625,531.17468 L 375.5625,531.17468 L 375.5625,529.89343 C 376.03,530.96718 376.74501,531.42465 377.875,531.42468 C 380.55375,531.42468 382.03125,529.08844 382.03125,524.76843 C 382.03125,520.44843 380.64125,518.14343 378.0625,518.14343 C 376.85875,518.14343 376.19875,518.59467 375.78125,519.64343 L 375.78125,514.89343 L 372.625,514.89343 z M 383.34375,514.89343 L 383.34375,517.58093 L 386.5,517.58093 L 386.5,514.89343 L 383.34375,514.89343 z M 388.375,514.89343 L 388.375,531.17468 L 391.5625,531.17468 L 391.5625,514.89343 L 388.375,514.89343 z M 393.40625,514.89343 L 393.40625,517.58093 L 396.59375,517.58093 L 396.59375,514.89343 L 393.40625,514.89343 z M 317.78125,515.45593 C 318.04416,515.45249 318.31375,515.45593 318.59375,515.45593 C 320.81125,515.45593 321.65625,516.99593 321.65625,519.14343 C 321.65625,521.29218 320.98126,523.81594 320.1875,525.76843 C 318.9975,528.74593 317.3,530.67469 314.03125,530.67468 C 313.86781,530.67468 313.69748,530.65792 313.53125,530.64343 C 313.2819,530.62169 313.04878,530.56054 312.875,530.42468 C 312.70122,530.28882 312.59375,530.08499 312.59375,529.73718 C 312.59375,529.24968 312.735,528.63843 312.875,528.17468 L 315.96875,516.95593 C 316.01625,516.78593 316.07875,516.59594 316.125,516.42468 C 316.35281,515.60155 316.99252,515.46624 317.78125,515.45593 z M 415.6875,517.86218 C 413.77125,517.86218 412.96501,518.41468 412.375,520.04968 L 412.375,518.42468 L 409.5625,518.42468 L 409.5625,531.17468 L 412.71875,531.17468 L 412.71875,523.98718 C 412.71875,522.05968 413.19375,521.3934 414.59375,521.39343 C 414.9375,521.39343 415.09749,521.42716 415.6875,521.54968 L 415.9375,517.86218 L 415.6875,517.86218 z M 402.03125,518.14343 C 399.4775,518.14343 397.90626,520.65718 397.90625,524.83093 C 397.90625,528.93093 399.4775,531.42465 402.03125,531.42468 C 403.26125,531.42468 404.0425,530.96719 404.65625,529.89343 L 404.65625,531.17468 L 407.4375,531.17468 L 407.4375,518.42468 L 404.65625,518.42468 L 404.65625,519.70593 C 404.23875,518.70593 403.31,518.14343 402.03125,518.14343 z M 366.28125,518.17468 C 363.21125,518.17468 361.28124,520.6922 361.28125,524.76843 C 361.28125,528.84468 363.21125,531.42465 366.28125,531.42468 C 369.3525,531.42468 371.25,528.90593 371.25,524.83093 C 371.25,520.65718 369.3775,518.17469 366.28125,518.17468 z M 383.34375,518.70593 L 383.34375,531.20593 L 386.5,531.20593 L 386.5,518.70593 L 383.34375,518.70593 z M 393.40625,518.70593 L 393.40625,531.20593 L 396.59375,531.20593 L 396.59375,518.70593 L 393.40625,518.70593 z M 328.75,518.89343 C 328.12625,518.89343 327.29875,519.3909 326.53125,520.26843 C 325.85875,521.02093 325.20875,522.11095 324.96875,522.73718 C 324.8975,522.91218 324.84375,523.12968 324.84375,523.33093 C 324.84375,523.48093 324.89626,523.51842 324.96875,523.51843 C 325.00437,523.51843 325.03191,523.50751 325.0625,523.48718 C 325.09309,523.46685 325.12328,523.43726 325.15625,523.39343 C 325.22219,523.30578 325.28625,523.18781 325.40625,522.98718 C 325.95875,522.00843 326.9,520.3934 327.5,520.39343 C 327.6675,520.39343 327.71875,520.51843 327.71875,520.64343 C 327.71875,520.89468 327.52124,521.50344 327.28125,522.20593 L 325.53125,527.61218 C 325.1475,528.76593 324.87499,529.86595 324.875,530.51843 C 324.875,531.04468 325.0075,531.58093 325.75,531.58093 C 326.375,531.58093 327.005,531.19091 327.84375,530.11218 C 328.9475,528.70718 329.59375,527.22592 329.59375,526.79968 C 329.59375,526.67468 329.54125,526.64344 329.46875,526.64343 C 329.2775,526.64343 329.22875,526.81969 328.4375,528.17468 C 327.9575,529.00218 327.37,529.86216 326.9375,529.86218 C 326.77,529.86218 326.71876,529.7009 326.71875,529.54968 C 326.71875,529.09843 327.10625,527.97594 327.25,527.54968 L 328.90625,522.39343 C 329.14625,521.64093 329.53125,520.63342 329.53125,519.83093 C 329.53125,519.32968 329.3025,518.89344 328.75,518.89343 z M 337.53125,518.89343 C 336.14,518.89343 334.66125,519.9272 333.75,520.95593 C 332.14375,522.71218 331.0625,525.22217 331.0625,527.70593 C 331.0625,529.38593 331.71375,531.58093 333.65625,531.58093 C 334.90375,531.58093 336.115,530.63341 336.90625,529.70593 C 337.33875,529.20343 338.5,527.75219 338.5,527.04968 C 338.5,526.95093 338.45751,526.79967 338.3125,526.79968 C 338.27062,526.79968 338.24727,526.8144 338.21875,526.83093 C 338.19023,526.84746 338.18031,526.89015 338.15625,526.92468 C 338.10813,526.99375 338.0525,527.08719 337.96875,527.23718 C 337.34625,528.39218 335.89875,530.29968 334.53125,530.29968 C 333.23625,530.29968 332.84376,528.8734 332.84375,527.76843 C 332.84375,527.19218 332.93625,526.66966 333.03125,526.14343 C 334.32625,525.91718 335.62,525.76966 336.84375,525.26843 C 338.4025,524.61593 339.71876,523.18719 339.71875,521.33093 C 339.71875,520.00218 338.875,518.89344 337.53125,518.89343 z M 337.25,519.42468 C 337.94625,519.42468 338.1875,520.05345 338.1875,520.70593 C 338.1875,521.68343 337.83251,522.67718 337.28125,523.45593 C 336.25,524.91093 334.73124,525.26719 333.125,525.64343 C 333.4125,524.46343 333.96251,522.67218 334.875,521.26843 C 335.4975,520.31593 336.31499,519.42467 337.25,519.42468 z M 366.25,521.01843 C 367.455,521.01843 368.0625,522.28592 368.0625,524.79968 C 368.0625,527.21593 367.41625,528.54967 366.3125,528.54968 C 365.1325,528.54968 364.5,527.23345 364.5,524.76843 C 364.5,522.37593 365.145,521.01843 366.25,521.01843 z M 377.25,521.01843 C 378.38,521.01843 378.8125,522.03469 378.8125,524.76843 C 378.8125,527.45343 378.35625,528.54967 377.25,528.54968 C 376.21875,528.54968 375.78125,527.73593 375.78125,525.83093 L 375.78125,523.45593 C 375.78125,521.79593 376.2425,521.01843 377.25,521.01843 z M 402.75,521.01843 C 403.7075,521.01843 404.28125,521.86716 404.28125,523.33093 L 404.28125,525.89343 C 404.28125,527.74843 403.8075,528.54967 402.75,528.54968 C 401.59625,528.54968 401.12501,527.45345 401.125,524.76843 C 401.125,522.22968 401.645,521.01843 402.75,521.01843 z"
       id="path2486"
       style="fill:#ee243f;fill-opacity:1;fill-rule:nonzero;stroke:none" />
    <path
       d="M 342.75,536.86218 C 342.69625,536.86218 342.615,536.88345 342.5625,536.92468 C 342.18375,537.16843 341.865,537.29094 341.40625,537.33093 C 341.05625,537.35843 340.78124,537.30593 340.78125,537.54968 C 340.78125,537.67093 340.87374,537.67471 340.96875,537.67468 C 341.2375,537.67468 341.53126,537.67965 341.53125,538.01843 C 341.53125,538.18093 341.49251,538.35593 341.4375,538.51843 L 338.96875,546.73718 C 338.955,546.79093 338.9375,546.86966 338.9375,546.92468 C 338.9375,546.99218 338.95125,547.01846 339.03125,547.01843 L 339.4375,547.01843 C 339.69375,547.01843 339.79376,546.9959 339.875,546.73718 C 340.27875,545.53093 340.7725,544.3359 341.40625,543.23718 C 341.83875,542.49218 342.84875,540.8934 343.46875,540.89343 C 343.77875,540.89343 343.99999,541.14469 344,541.76843 C 344,543.01468 343.02125,545.82219 342.46875,546.48718 C 342.36,546.62218 342.26875,546.64342 342.1875,546.64343 C 342.08,546.64343 342.04,546.58471 342,546.29968 C 341.95875,545.94718 341.82751,545.76846 341.53125,545.76843 C 341.2475,545.76843 341.09375,546.05094 341.09375,546.36218 C 341.09375,546.84968 341.42499,547.11216 341.75,547.11218 C 342.22125,547.11218 342.74626,546.74721 343.40625,545.89343 C 344.25625,544.79468 344.9375,543.11343 344.9375,541.58093 C 344.9375,540.74093 344.59376,540.23718 343.90625,540.23718 C 342.7475,540.23718 341.37499,542.65219 340.78125,543.83093 C 340.82125,543.69593 342.54875,537.94719 342.65625,537.58093 C 342.71,537.40468 342.84374,537.04966 342.84375,536.95593 C 342.84375,536.90093 342.81749,536.86219 342.75,536.86218 z M 394.125,537.61218 C 392.84375,537.61218 391.75,538.52092 391.75,539.86218 C 391.75,540.39218 391.90501,540.7272 392.1875,541.17468 C 390.7325,541.56718 389.59375,542.60466 389.59375,544.20593 C 389.59375,545.91343 390.98375,547.11221 392.65625,547.11218 C 394.17875,547.11218 396.03126,545.9772 396.03125,544.26843 C 396.03125,543.98343 395.92,543.6997 395.8125,543.54968 C 395.93375,543.56468 396.06625,543.58092 396.1875,543.58093 C 396.91625,543.58093 397.4375,542.89844 397.4375,542.20593 C 397.4375,542.05843 397.40749,541.86221 397.3125,541.86218 C 397.205,541.86218 397.18375,541.98092 397.15625,542.04968 C 396.955,542.57718 396.64625,542.69221 396.09375,542.70593 C 394.7325,542.71968 394.11125,542.7097 393.4375,543.45593 C 393.28875,543.63093 393.03125,543.9622 393.03125,544.20593 C 393.03125,544.25968 393.07,544.33091 393.125,544.33093 C 393.2325,544.33093 393.27876,544.0572 393.5625,543.79968 C 393.79125,543.58218 394.165,543.39341 394.71875,543.39343 C 395.285,543.39343 395.6875,543.6447 395.6875,544.26843 C 395.6875,545.61093 394.31626,546.6434 393.0625,546.64343 C 391.59375,546.64343 390.75,545.4597 390.75,544.04968 C 390.75,542.93718 391.25999,541.7322 392.40625,541.39343 C 392.74375,541.65218 393.05126,541.79969 393.46875,541.79968 C 393.6975,541.79968 394.03125,541.72342 394.03125,541.42468 C 394.03125,541.08593 393.38625,541.04971 393.15625,541.04968 C 392.94125,541.04968 392.7475,541.0847 392.53125,541.11218 C 392.275,540.82718 392.15625,540.55465 392.15625,540.17468 C 392.15625,539.26718 392.95876,538.39346 393.875,538.39343 C 394.92625,538.39343 395.095,539.64342 395.5,539.64343 C 395.58125,539.64343 395.6475,539.54596 395.6875,539.42468 C 395.795,539.15343 395.90625,538.73967 395.90625,538.54968 C 395.90625,537.88593 394.90625,537.61217 394.125,537.61218 z M 333.5625,537.67468 C 333.1025,537.67468 332.84375,538.33842 332.84375,538.70593 C 332.84375,538.94968 332.95375,539.26842 333.25,539.26843 C 333.70875,539.26843 333.96875,538.58468 333.96875,538.20593 C 333.96875,537.97468 333.845,537.67471 333.5625,537.67468 z M 311.03125,537.79968 C 310.8825,537.79968 310.65625,537.79717 310.65625,537.98718 C 310.65625,538.17593 310.89625,538.20594 311.03125,538.20593 C 311.5975,538.20593 311.505,538.40591 311.53125,539.20593 L 311.8125,546.48718 C 311.825,546.87968 311.775,547.04967 311.9375,547.04968 C 312.0575,547.04968 312.11125,546.9647 312.3125,546.61218 L 316.09375,539.95593 C 316.27,539.64343 316.66875,539.0359 316.84375,538.73718 C 317.08625,538.33218 317.275,538.24343 317.625,538.17468 C 317.76,538.14843 317.87501,538.12344 317.875,537.98718 C 317.875,537.85093 317.73375,537.79967 317.625,537.79968 C 317.315,537.79968 317.01126,537.86219 316.6875,537.86218 C 316.32375,537.86218 315.97624,537.79965 315.625,537.79968 C 315.50375,537.79968 315.375,537.83721 315.375,537.98718 C 315.375,538.35218 316.34375,537.94842 316.34375,538.51843 C 316.34375,538.73468 316.01376,539.28345 315.90625,539.48718 L 312.78125,545.08093 C 312.76875,544.64593 312.53125,539.67092 312.53125,539.23718 L 312.53125,538.95593 C 312.53125,538.38593 312.62625,538.24593 313.125,538.20593 C 313.315,538.19093 313.5,538.18971 313.5,537.98718 C 313.5,537.83718 313.37251,537.83093 313.25,537.83093 C 312.98125,537.83093 312.64875,537.86221 312.3125,537.86218 C 311.88,537.86218 311.46375,537.79967 311.03125,537.79968 z M 400.15625,537.79968 C 400.0075,537.79968 399.78124,537.79717 399.78125,537.98718 C 399.78125,538.17593 400.02126,538.20594 400.15625,538.20593 C 400.7225,538.20593 400.62999,538.40591 400.65625,539.20593 L 400.9375,546.48718 C 400.95125,546.87968 400.90125,547.04967 401.0625,547.04968 C 401.185,547.04968 401.23501,546.9647 401.4375,546.61218 L 405.21875,539.95593 C 405.395,539.64343 405.79376,539.0359 405.96875,538.73718 C 406.21125,538.33218 406.39999,538.24343 406.75,538.17468 C 406.88625,538.14843 407,538.12344 407,537.98718 C 407,537.85093 406.89,537.79967 406.78125,537.79968 C 406.47125,537.79968 406.135,537.86219 405.8125,537.86218 C 405.4475,537.86218 405.10125,537.79965 404.75,537.79968 C 404.63,537.79968 404.49999,537.83721 404.5,537.98718 C 404.5,538.35218 405.46875,537.94842 405.46875,538.51843 C 405.46875,538.73468 405.13875,539.28345 405.03125,539.48718 L 401.90625,545.08093 C 401.89375,544.64593 401.6875,539.67092 401.6875,539.23718 L 401.6875,538.95593 C 401.6875,538.38593 401.7825,538.24593 402.28125,538.20593 C 402.47,538.19093 402.65625,538.18971 402.65625,537.98718 C 402.65625,537.83718 402.49625,537.83093 402.375,537.83093 C 402.105,537.83093 401.77501,537.86221 401.4375,537.86218 C 401.00625,537.86218 400.58625,537.79967 400.15625,537.79968 z M 319.28125,540.23718 C 318.49875,540.23718 317.67,540.80593 317.15625,541.36218 C 316.25375,542.31218 315.65625,543.67591 315.65625,545.01843 C 315.65625,545.92718 316.03375,547.11216 317.125,547.11218 C 317.82625,547.11218 318.4925,546.58343 318.9375,546.08093 C 319.17875,545.80968 319.8125,545.02343 319.8125,544.64343 C 319.8125,544.58968 319.8,544.51845 319.71875,544.51843 C 319.62375,544.51843 319.625,544.60591 319.53125,544.76843 C 319.18,545.39218 318.36249,546.39342 317.59375,546.39343 C 316.865,546.39343 316.65625,545.64716 316.65625,545.04968 C 316.65625,544.73968 316.69625,544.4297 316.75,544.14343 C 317.47875,544.02218 318.21875,543.94595 318.90625,543.67468 C 319.7825,543.32218 320.5,542.55343 320.5,541.54968 C 320.5,540.83093 320.03625,540.23718 319.28125,540.23718 z M 323.0625,540.23718 C 322.605,540.23718 322.03875,540.74215 321.59375,541.39343 C 321.31,541.81343 321.03125,542.35592 321.03125,542.61218 C 321.03125,542.68093 321.0575,542.73717 321.125,542.73718 C 321.205,542.73718 321.22875,542.70716 321.28125,542.61218 C 321.43,542.32843 322.07375,541.08094 322.4375,541.08093 C 322.54625,541.08093 322.5625,541.18719 322.5625,541.26843 C 322.5625,541.44468 322.47251,541.81344 322.40625,542.11218 C 322.1625,543.23718 321.22001,546.37718 321.125,546.67468 C 321.11125,546.72843 321.09375,546.80841 321.09375,546.86218 C 321.09375,546.97093 321.1625,546.95595 321.40625,546.95593 C 321.66125,546.95593 321.9025,546.95595 321.96875,546.86218 C 322.03625,546.79343 322.06625,546.62469 322.1875,546.29968 C 322.7125,544.80843 323.30625,543.27967 324.15625,541.92468 C 324.25125,541.78843 324.65876,541.1122 324.875,541.11218 C 324.94125,541.11218 324.96876,541.18721 324.96875,541.26843 C 324.96875,541.51218 324.78124,541.74593 324.78125,542.01843 C 324.78125,542.23468 324.92626,542.3622 325.15625,542.36218 C 325.7225,542.36218 326,541.46592 326,541.01843 C 326,540.65218 325.825,540.23718 325.40625,540.23718 C 324.47625,540.23718 323.3025,542.84465 322.9375,543.64343 C 323.15375,542.85718 323.53125,541.75094 323.53125,540.92468 C 323.53125,540.59843 323.44125,540.23718 323.0625,540.23718 z M 328.71875,540.23718 C 327.6125,540.23718 326.65625,541.15716 326.65625,542.26843 C 326.65625,543.62468 328.28124,544.40094 328.28125,545.58093 C 328.28125,546.13718 327.8125,546.76841 327.21875,546.76843 C 326.275,546.76843 326.1925,545.7922 326.125,544.92468 C 326.11125,544.78968 326.06375,544.54966 325.875,544.54968 C 325.68625,544.54968 325.65125,544.89716 325.625,545.01843 C 325.54375,545.42468 325.40626,545.94219 325.40625,546.36218 C 325.40625,546.83718 326.55374,547.11216 327.09375,547.11218 C 328.105,547.11218 329.15624,546.13968 329.15625,544.98718 C 329.15625,543.64468 327.46874,542.70716 327.46875,541.58093 C 327.46875,541.07968 327.88,540.58093 328.40625,540.58093 C 329.2425,540.58093 329.255,541.56091 329.375,542.14343 C 329.38875,542.23843 329.45875,542.3622 329.59375,542.36218 C 329.75625,542.36218 329.80374,541.97968 329.84375,541.83093 C 329.92375,541.50593 330.09375,541.02595 330.09375,540.76843 C 330.09375,540.38843 328.98875,540.23718 328.71875,540.23718 z M 332.8125,540.23718 C 332.4625,540.23718 332.025,540.51343 331.59375,540.98718 C 331.21625,541.39468 330.8525,541.99215 330.71875,542.33093 C 330.67875,542.42593 330.625,542.53465 330.625,542.64343 C 330.625,542.72468 330.6475,542.73717 330.6875,542.73718 C 330.77,542.73718 330.8025,542.67216 330.9375,542.45593 C 331.2475,541.92718 331.78875,541.04971 332.125,541.04968 C 332.21875,541.04968 332.24999,541.1072 332.25,541.17468 C 332.25,541.31093 332.135,541.63967 332,542.01843 L 331,544.95593 C 330.78375,545.57843 330.625,546.16592 330.625,546.51843 C 330.625,546.80343 330.7075,547.11216 331.125,547.11218 C 331.47625,547.11218 331.84125,546.88221 332.3125,546.29968 C 332.9325,545.53968 333.28125,544.74845 333.28125,544.51843 C 333.28125,544.44968 333.25876,544.42471 333.21875,544.42468 C 333.11125,544.42468 333.10125,544.53719 332.65625,545.26843 C 332.3875,545.71593 332.055,546.17469 331.8125,546.17468 C 331.7175,546.17468 331.6875,546.06842 331.6875,545.98718 C 331.6875,545.74343 331.88875,545.15469 331.96875,544.92468 L 332.90625,542.14343 C 333.04,541.73718 333.25,541.20216 333.25,540.76843 C 333.25,540.49718 333.12251,540.23718 332.8125,540.23718 z M 337.90625,540.23718 C 337.1925,540.23718 336.53875,540.58342 336,541.01843 C 334.81375,541.95343 334.03125,543.49467 334.03125,544.98718 C 334.03125,545.90843 334.4525,547.11216 335.53125,547.11218 C 336.35375,547.11218 337.0775,546.53465 337.5625,545.92468 C 337.95375,545.43593 338.34374,544.73966 338.34375,544.54968 C 338.34375,544.48093 338.29876,544.42466 338.21875,544.42468 C 338.1375,544.42468 338.07124,544.59344 338.03125,544.67468 C 337.70625,545.31218 336.93876,546.39341 336.0625,546.39343 C 335.26625,546.39343 335.03125,545.70966 335.03125,545.01843 C 335.03125,543.92093 335.45499,542.66344 336.0625,541.76843 C 336.33125,541.37468 336.99251,540.58092 337.53125,540.58093 C 338.165,540.58093 337.61126,541.92465 338.40625,541.92468 C 338.81125,541.92468 339.03124,541.49591 339.03125,541.14343 C 339.03125,540.49218 338.48625,540.23718 337.90625,540.23718 z M 349.1875,540.23718 C 348.405,540.23718 347.60625,540.80593 347.09375,541.36218 C 346.19,542.31218 345.5625,543.67591 345.5625,545.01843 C 345.5625,545.92718 345.9375,547.11216 347.03125,547.11218 C 347.73125,547.11218 348.39874,546.58343 348.84375,546.08093 C 349.08625,545.80968 349.75,545.02343 349.75,544.64343 C 349.75,544.58968 349.7375,544.51845 349.65625,544.51843 C 349.5625,544.51843 349.53124,544.60591 349.4375,544.76843 C 349.08625,545.39218 348.26875,546.39342 347.5,546.39343 C 346.7725,546.39343 346.56251,545.64716 346.5625,545.04968 C 346.5625,544.73968 346.60251,544.4297 346.65625,544.14343 C 347.385,544.02218 348.12501,543.94595 348.8125,543.67468 C 349.69,543.32218 350.4375,542.55343 350.4375,541.54968 C 350.4375,540.83093 349.94125,540.23718 349.1875,540.23718 z M 352.96875,540.23718 C 352.50875,540.23718 351.97499,540.74215 351.53125,541.39343 C 351.2475,541.81343 350.9375,542.35592 350.9375,542.61218 C 350.9375,542.68093 350.965,542.73717 351.03125,542.73718 C 351.1125,542.73718 351.1325,542.70716 351.1875,542.61218 C 351.335,542.32843 351.98,541.08094 352.34375,541.08093 C 352.4525,541.08093 352.46875,541.18719 352.46875,541.26843 C 352.46875,541.44468 352.41125,541.81344 352.34375,542.11218 C 352.10125,543.23718 351.15625,546.37718 351.0625,546.67468 C 351.04875,546.72843 351.00001,546.80841 351,546.86218 C 351,546.97093 351.10125,546.95595 351.34375,546.95593 C 351.6,546.95593 351.8075,546.95595 351.875,546.86218 C 351.9425,546.79343 352.00375,546.62469 352.125,546.29968 C 352.65125,544.80843 353.24375,543.27967 354.09375,541.92468 C 354.1875,541.78843 354.565,541.1122 354.78125,541.11218 C 354.84875,541.11218 354.90625,541.18721 354.90625,541.26843 C 354.90625,541.51218 354.6875,541.74593 354.6875,542.01843 C 354.6875,542.23468 354.865,542.3622 355.09375,542.36218 C 355.66,542.36218 355.90625,541.46592 355.90625,541.01843 C 355.90625,540.65218 355.76126,540.23718 355.34375,540.23718 C 354.41375,540.23718 353.20875,542.84465 352.84375,543.64343 C 353.06,542.85718 353.4375,541.75094 353.4375,540.92468 C 353.4375,540.59843 353.34501,540.23718 352.96875,540.23718 z M 358.28125,540.23718 C 357.60625,540.23718 357.16126,540.7297 356.5,541.70593 C 356.27125,542.04593 356,542.50717 356,542.64343 C 356,542.71093 356.0275,542.76845 356.09375,542.76843 C 356.215,542.76843 356.36,542.48092 356.65625,542.01843 C 356.965,541.54468 357.33876,541.01842 357.59375,541.01843 C 357.675,541.01843 357.71874,541.09219 357.71875,541.17468 C 357.71875,541.37718 357.61625,541.59718 357.46875,542.01843 L 356.375,544.95593 C 356.21375,545.38968 356,545.99343 356,546.54968 C 356,546.87593 356.21125,547.11216 356.5625,547.11218 C 357.87,547.11218 359.42876,544.76841 360.0625,543.73718 C 359.83375,544.49718 359.28126,545.79093 359.28125,546.54968 C 359.28125,546.83468 359.36499,547.11216 359.6875,547.11218 C 360.79375,547.11218 362.03126,544.86217 362.03125,544.54968 C 362.03125,544.49593 362.03126,544.45594 361.9375,544.45593 C 361.85625,544.45593 361.78125,544.50341 361.6875,544.70593 C 361.365,545.39843 360.7575,546.23718 360.40625,546.23718 C 360.29875,546.23718 360.3125,546.11845 360.3125,546.04968 C 360.3125,545.80593 360.57624,544.99596 360.65625,544.73718 L 362,540.58093 C 362.01375,540.54093 362.0625,540.46721 362.0625,540.42468 C 362.0625,540.34468 361.9825,540.33096 361.875,540.33093 L 361.53125,540.33093 C 361.33,540.33093 361.29875,540.37469 361.21875,540.54968 C 360.32875,542.42093 359.9525,543.7697 358.375,545.51843 C 358.03875,545.89843 357.59125,546.29971 357.28125,546.29968 C 357.10625,546.29968 357.0625,546.1947 357.0625,546.01843 C 357.0625,545.82843 357.15126,545.49721 357.3125,545.04968 L 358.40625,541.98718 C 358.54125,541.61968 358.71875,541.17591 358.71875,540.76843 C 358.71875,540.48468 358.59125,540.23718 358.28125,540.23718 z M 364.90625,540.23718 C 364.59625,540.23718 364.22625,540.40094 363.78125,540.86218 C 363.43125,541.22843 362.6875,542.28593 362.6875,542.61218 C 362.6875,542.65343 362.7275,542.70596 362.78125,542.70593 C 362.875,542.70593 362.92626,542.51469 363.4375,541.76843 C 363.72125,541.36093 364.05125,541.01841 364.28125,541.01843 C 364.4025,541.01843 364.4375,541.16094 364.4375,541.26843 C 364.4375,541.62093 364.17,542.39843 364.0625,542.73718 L 362.78125,546.58093 C 362.7275,546.75718 362.71875,546.78965 362.71875,546.83093 C 362.71875,546.93843 362.82125,546.95593 362.875,546.95593 L 363.25,546.95593 C 363.52,546.95593 363.56125,546.93218 363.65625,546.67468 C 364.14125,545.35968 364.7225,544.05971 365.53125,542.89343 C 365.86875,542.40468 366.94624,540.83091 367.59375,540.83093 C 367.80875,540.83093 367.90625,541.00217 367.90625,541.20593 C 367.90625,541.53093 367.67124,541.98841 367.5625,542.29968 L 366.5625,544.95593 C 366.30625,545.63343 366.18749,546.1384 366.1875,546.42468 C 366.1875,546.72218 366.29,547.11216 366.75,547.11218 C 367.26125,547.11218 367.77,546.81591 368.78125,545.08093 C 368.91625,544.83593 369,544.63092 369,544.54968 C 369,544.49593 368.97375,544.45593 368.90625,544.45593 C 368.8125,544.45593 368.76,544.5372 368.625,544.76843 C 368.315,545.28343 367.7075,546.23718 367.34375,546.23718 C 367.2225,546.23718 367.18749,546.12595 367.1875,546.01843 C 367.1875,545.81468 367.38876,545.27092 367.46875,545.08093 C 367.53625,544.87843 368.31125,542.95219 368.59375,542.11218 C 368.72875,541.70468 368.8125,541.30596 368.8125,541.04968 C 368.8125,540.61593 368.56625,540.23716 368.09375,540.23718 C 366.74625,540.23718 365.33749,542.49219 364.71875,543.54968 C 364.92125,542.87093 365.40626,541.61718 365.40625,540.92468 C 365.40625,540.62718 365.28499,540.23716 364.90625,540.23718 z M 372.53125,540.23718 C 371.17,540.23718 370.12499,541.62216 370.125,542.92468 C 370.125,543.53468 370.27375,543.9984 370.625,544.48718 C 370.20625,544.81218 369.875,545.16841 369.875,545.73718 C 369.875,546.25218 370.17501,546.52341 370.59375,546.76843 C 369.64875,547.05218 368.40625,547.43716 368.40625,548.64343 C 368.40625,549.98593 370.0375,550.58093 371.15625,550.58093 C 372.41125,550.58093 373.90625,549.74094 373.90625,548.33093 C 373.90625,546.22968 370.46875,546.34343 370.46875,545.29968 C 370.46875,545.04093 370.65625,544.85592 370.84375,544.70593 C 371.15375,545.00468 371.53751,545.17469 371.96875,545.17468 C 373.3575,545.17468 374.40625,543.7397 374.40625,542.42468 C 374.40625,541.93593 374.295,541.67216 374.09375,541.23718 L 375,541.23718 C 375.3375,541.23718 375.375,540.91718 375.375,540.76843 C 375.375,540.63218 375.25876,540.64341 375.03125,540.64343 L 374.65625,540.64343 C 374.265,540.64343 373.76125,540.63219 373.53125,540.54968 C 373.16875,540.40093 373.0175,540.23718 372.53125,540.23718 z M 378.75,540.23718 C 377.9675,540.23718 377.13875,540.80593 376.625,541.36218 C 375.7225,542.31218 375.12499,543.67591 375.125,545.01843 C 375.125,545.92718 375.47001,547.11216 376.5625,547.11218 C 377.26375,547.11218 377.96125,546.58343 378.40625,546.08093 C 378.64875,545.80968 379.28125,545.02343 379.28125,544.64343 C 379.28125,544.58968 379.2675,544.51845 379.1875,544.51843 C 379.09375,544.51843 379.09375,544.60591 379,544.76843 C 378.64875,545.39218 377.83251,546.39342 377.0625,546.39343 C 376.335,546.39343 376.125,545.64716 376.125,545.04968 C 376.125,544.73968 376.165,544.4297 376.21875,544.14343 C 376.9475,544.02218 377.68749,543.94595 378.375,543.67468 C 379.25125,543.32218 379.96875,542.55343 379.96875,541.54968 C 379.96875,540.83093 379.50501,540.23718 378.75,540.23718 z M 382.6875,540.23718 C 382.3775,540.23718 382.0075,540.40094 381.5625,540.86218 C 381.2125,541.22843 380.4375,542.28593 380.4375,542.61218 C 380.4375,542.65343 380.4775,542.70596 380.53125,542.70593 C 380.62625,542.70593 380.67499,542.51469 381.1875,541.76843 C 381.47,541.36093 381.80125,541.01841 382.03125,541.01843 C 382.1525,541.01843 382.21875,541.16094 382.21875,541.26843 C 382.21875,541.62093 381.92,542.39843 381.8125,542.73718 L 380.53125,546.58093 C 380.4775,546.75718 380.50001,546.78965 380.5,546.83093 C 380.5,546.93843 380.5725,546.95593 380.625,546.95593 L 381.03125,546.95593 C 381.3,546.95593 381.3425,546.93218 381.4375,546.67468 C 381.9225,545.35968 382.47375,544.05971 383.28125,542.89343 C 383.61875,542.40468 384.69625,540.83091 385.34375,540.83093 C 385.55875,540.83093 385.65625,541.00217 385.65625,541.20593 C 385.65625,541.53093 385.45125,541.98841 385.34375,542.29968 L 384.3125,544.95593 C 384.05625,545.63343 383.96875,546.1384 383.96875,546.42468 C 383.96875,546.72218 384.0425,547.11216 384.5,547.11218 C 385.0125,547.11218 385.52,546.81591 386.53125,545.08093 C 386.66625,544.83593 386.75,544.63092 386.75,544.54968 C 386.75,544.49593 386.72375,544.45593 386.65625,544.45593 C 386.56125,544.45593 386.51001,544.5372 386.375,544.76843 C 386.06625,545.28343 385.48999,546.23718 385.125,546.23718 C 385.005,546.23718 384.96875,546.12595 384.96875,546.01843 C 384.96875,545.81468 385.13749,545.27092 385.21875,545.08093 C 385.28625,544.87843 386.06125,542.95219 386.34375,542.11218 C 386.47875,541.70468 386.59376,541.30596 386.59375,541.04968 C 386.59375,540.61593 386.34625,540.23716 385.875,540.23718 C 384.52625,540.23718 383.11875,542.49219 382.5,543.54968 C 382.70125,542.87093 383.15624,541.61718 383.15625,540.92468 C 383.15625,540.62718 383.065,540.23716 382.6875,540.23718 z M 408.28125,540.23718 C 406.2725,540.23718 404.90625,542.85343 404.90625,544.64343 C 404.90625,545.70093 405.43375,547.11216 406.6875,547.11218 C 407.30875,547.11218 407.8725,546.78717 408.34375,546.39343 C 409.395,545.52593 410.03125,544.1247 410.03125,542.76843 C 410.03125,541.69718 409.5625,540.23718 408.28125,540.23718 z M 412.875,540.23718 C 412.4175,540.23718 411.85124,540.74215 411.40625,541.39343 C 411.1225,541.81343 410.84376,542.35592 410.84375,542.61218 C 410.84375,542.68093 410.86876,542.73717 410.9375,542.73718 C 411.0175,542.73718 411.04,542.70716 411.09375,542.61218 C 411.2425,542.32843 411.885,541.08094 412.25,541.08093 C 412.3575,541.08093 412.375,541.18719 412.375,541.26843 C 412.375,541.44468 412.28624,541.81344 412.21875,542.11218 C 411.97625,543.23718 411.03249,546.37718 410.9375,546.67468 C 410.925,546.72843 410.90625,546.80841 410.90625,546.86218 C 410.90625,546.97093 410.97624,546.95595 411.21875,546.95593 C 411.475,546.95593 411.715,546.95595 411.78125,546.86218 C 411.84875,546.79343 411.87749,546.62469 412,546.29968 C 412.525,544.80843 413.11874,543.27967 413.96875,541.92468 C 414.0625,541.78843 414.47251,541.1122 414.6875,541.11218 C 414.755,541.11218 414.78125,541.18721 414.78125,541.26843 C 414.78125,541.51218 414.59375,541.74593 414.59375,542.01843 C 414.59375,542.23468 414.73999,542.3622 414.96875,542.36218 C 415.53625,542.36218 415.8125,541.46592 415.8125,541.01843 C 415.8125,540.65218 415.63749,540.23718 415.21875,540.23718 C 414.28875,540.23718 413.11376,542.84465 412.75,543.64343 C 412.96625,542.85718 413.34375,541.75094 413.34375,540.92468 C 413.34375,540.59843 413.25375,540.23718 412.875,540.23718 z M 418.53125,540.23718 C 417.425,540.23718 416.46874,541.15716 416.46875,542.26843 C 416.46875,543.62468 418.09376,544.40094 418.09375,545.58093 C 418.09375,546.13718 417.62374,546.76841 417.03125,546.76843 C 416.0875,546.76843 416.00375,545.7922 415.9375,544.92468 C 415.92375,544.78968 415.87749,544.54966 415.6875,544.54968 C 415.5,544.54968 415.46375,544.89716 415.4375,545.01843 C 415.35625,545.42468 415.21876,545.94219 415.21875,546.36218 C 415.21875,546.83718 416.36751,547.11216 416.90625,547.11218 C 417.9175,547.11218 418.96875,546.13968 418.96875,544.98718 C 418.96875,543.64468 417.28125,542.70716 417.28125,541.58093 C 417.28125,541.07968 417.66249,540.58093 418.1875,540.58093 C 419.025,540.58093 419.06749,541.56091 419.1875,542.14343 C 419.2025,542.23843 419.24124,542.3622 419.375,542.36218 C 419.5375,542.36218 419.615,541.97968 419.65625,541.83093 C 419.73625,541.50593 419.90624,541.02595 419.90625,540.76843 C 419.90625,540.38843 418.8,540.23718 418.53125,540.23718 z M 423.625,540.23718 C 421.61625,540.23718 420.25001,542.85343 420.25,544.64343 C 420.25,545.70093 420.77751,547.11216 422.03125,547.11218 C 422.6525,547.11218 423.21501,546.78717 423.6875,546.39343 C 424.73875,545.52593 425.375,544.1247 425.375,542.76843 C 425.375,541.69718 424.90626,540.23718 423.625,540.23718 z M 428.1875,540.23718 C 427.7275,540.23718 427.19375,540.74215 426.75,541.39343 C 426.46625,541.81343 426.15624,542.35592 426.15625,542.61218 C 426.15625,542.68093 426.18374,542.73717 426.25,542.73718 C 426.33125,542.73718 426.35127,542.70716 426.40625,542.61218 C 426.55375,542.32843 427.23001,541.08094 427.59375,541.08093 C 427.70125,541.08093 427.68749,541.18719 427.6875,541.26843 C 427.6875,541.44468 427.63001,541.81344 427.5625,542.11218 C 427.32,543.23718 426.37501,546.37718 426.28125,546.67468 C 426.2675,546.72843 426.21874,546.80841 426.21875,546.86218 C 426.21875,546.97093 426.32001,546.95595 426.5625,546.95593 C 426.81875,546.95593 427.02627,546.95595 427.09375,546.86218 C 427.16125,546.79343 427.22251,546.62469 427.34375,546.29968 C 427.87,544.80843 428.46251,543.27967 429.3125,541.92468 C 429.40625,541.78843 429.78374,541.1122 430,541.11218 C 430.0675,541.11218 430.12501,541.18721 430.125,541.26843 C 430.125,541.51218 429.93751,541.74593 429.9375,542.01843 C 429.9375,542.23468 430.08376,542.3622 430.3125,542.36218 C 430.87875,542.36218 431.12502,541.46592 431.125,541.01843 C 431.125,540.65218 430.98,540.23718 430.5625,540.23718 C 429.6325,540.23718 428.42625,542.84465 428.0625,543.64343 C 428.2775,542.85718 428.68751,541.75094 428.6875,540.92468 C 428.6875,540.59843 428.56374,540.23718 428.1875,540.23718 z M 433.875,540.23718 C 432.51375,540.23718 431.46876,541.62216 431.46875,542.92468 C 431.46875,543.53468 431.61749,543.9984 431.96875,544.48718 C 431.55125,544.81218 431.21875,545.16841 431.21875,545.73718 C 431.21875,546.25218 431.51874,546.52341 431.9375,546.76843 C 430.99375,547.05218 429.74999,547.43716 429.75,548.64343 C 429.75,549.98593 431.38125,550.58093 432.5,550.58093 C 433.755,550.58093 435.25001,549.74094 435.25,548.33093 C 435.25,546.22968 431.81249,546.34343 431.8125,545.29968 C 431.8125,545.04093 431.9975,544.85592 432.1875,544.70593 C 432.49625,545.00468 432.88124,545.17469 433.3125,545.17468 C 434.70125,545.17468 435.75,543.7397 435.75,542.42468 C 435.75,541.93593 435.63999,541.67216 435.4375,541.23718 L 436.34375,541.23718 C 436.68125,541.23718 436.71875,540.91718 436.71875,540.76843 C 436.71875,540.63218 436.60501,540.64341 436.375,540.64343 L 436,540.64343 C 435.60875,540.64343 435.10375,540.63219 434.875,540.54968 C 434.51,540.40093 434.35999,540.23718 433.875,540.23718 z M 440.09375,540.23718 C 439.3125,540.23718 438.48,540.80593 437.96875,541.36218 C 437.065,542.31218 436.46876,543.67591 436.46875,545.01843 C 436.46875,545.92718 436.81374,547.11216 437.90625,547.11218 C 438.6075,547.11218 439.30376,546.58343 439.75,546.08093 C 439.9925,545.80968 440.625,545.02343 440.625,544.64343 C 440.625,544.58968 440.61125,544.51845 440.53125,544.51843 C 440.43625,544.51843 440.43876,544.60591 440.34375,544.76843 C 439.99375,545.39218 439.175,546.39342 438.40625,546.39343 C 437.67875,546.39343 437.46876,545.64716 437.46875,545.04968 C 437.46875,544.73968 437.50876,544.4297 437.5625,544.14343 C 438.29,544.02218 439.03001,543.94595 439.71875,543.67468 C 440.595,543.32218 441.3125,542.55343 441.3125,541.54968 C 441.3125,540.83093 440.84876,540.23718 440.09375,540.23718 z M 319.125,540.54968 C 319.5175,540.54968 319.65624,540.88466 319.65625,541.23718 C 319.64869,541.75511 319.46033,542.29276 319.15625,542.70593 C 318.5775,543.49218 317.71624,543.69094 316.8125,543.89343 C 316.975,543.25718 317.26874,542.2772 317.78125,541.51843 C 318.13125,541.00343 318.6,540.54969 319.125,540.54968 z M 349.03125,540.54968 C 349.42125,540.54968 349.5625,540.88466 349.5625,541.23718 C 349.55494,541.75511 349.36657,542.29276 349.0625,542.70593 C 348.4825,543.49218 347.62125,543.69094 346.71875,543.89343 C 346.88,543.25718 347.175,542.2772 347.6875,541.51843 C 348.0375,541.00343 348.50624,540.54969 349.03125,540.54968 z M 372.65625,540.54968 C 373.33,540.54968 373.5,541.25717 373.5,541.79968 C 373.5,542.69468 373.0025,544.83093 371.84375,544.83093 C 371.20875,544.83093 370.99999,544.09468 371,543.58093 C 371,542.67093 371.48251,540.54971 372.65625,540.54968 z M 378.59375,540.54968 C 378.985,540.54968 379.125,540.88466 379.125,541.23718 C 379.11744,541.75511 378.89782,542.29276 378.59375,542.70593 C 378.01375,543.49218 377.15375,543.69094 376.25,543.89343 C 376.41125,543.25718 376.7375,542.2772 377.25,541.51843 C 377.6,541.00343 378.06875,540.54969 378.59375,540.54968 z M 408.25,540.54968 C 408.95125,540.54968 409.15625,541.38716 409.15625,541.95593 C 409.15625,542.75593 408.83375,544.23716 408.28125,545.36218 C 407.90375,546.12218 407.3625,546.83094 406.6875,546.83093 C 405.95875,546.83093 405.8125,546.02217 405.8125,545.42468 C 405.8125,544.65218 406.0975,543.26842 406.625,542.14343 C 407.015,541.31718 407.575,540.54971 408.25,540.54968 z M 423.59375,540.54968 C 424.295,540.54968 424.46875,541.38716 424.46875,541.95593 C 424.46875,542.75593 424.17751,544.23716 423.625,545.36218 C 423.2475,546.12218 422.705,546.83094 422.03125,546.83093 C 421.30375,546.83093 421.15626,546.02217 421.15625,545.42468 C 421.15625,544.65218 421.4425,543.26842 421.96875,542.14343 C 422.36,541.31718 422.92001,540.54971 423.59375,540.54968 z M 434,540.54968 C 434.67375,540.54968 434.84377,541.25717 434.84375,541.79968 C 434.84375,542.69468 434.3475,544.83093 433.1875,544.83093 C 432.55375,544.83093 432.34374,544.09468 432.34375,543.58093 C 432.34375,542.67093 432.82624,540.54971 434,540.54968 z M 439.9375,540.54968 C 440.32875,540.54968 440.46875,540.88466 440.46875,541.23718 C 440.46119,541.75511 440.24159,542.29276 439.9375,542.70593 C 439.3575,543.49218 438.49749,543.69094 437.59375,543.89343 C 437.755,543.25718 438.0825,542.2772 438.59375,541.51843 C 438.945,541.00343 439.41251,540.54969 439.9375,540.54968 z M 371,546.95593 L 371.1875,547.04968 C 371.88875,547.33468 373.09375,547.84595 373.09375,548.76843 C 373.09375,549.71718 372.13001,550.2372 371.28125,550.23718 C 370.29625,550.23718 369.28125,549.66469 369.28125,548.58093 C 369.28125,548.06468 369.56875,547.6334 370,547.36218 C 370.22875,547.22593 370.59501,547.0247 371,546.95593 z M 432.34375,546.95593 L 432.53125,547.04968 C 433.23125,547.33468 434.4375,547.84595 434.4375,548.76843 C 434.4375,549.71718 433.47374,550.2372 432.625,550.23718 C 431.64125,550.23718 430.62499,549.66469 430.625,548.58093 C 430.625,548.06468 430.9125,547.6334 431.34375,547.36218 C 431.5725,547.22593 431.93876,547.0247 432.34375,546.95593 z"
       id="path2514"
       style="fill:#231f20;fill-opacity:1;fill-rule:nonzero;stroke:none" />
  </g>
</svg>
