<?xml version="1.0" encoding="UTF-8" standalone="no"?>
<!-- Created with Inkscape (http://www.inkscape.org/) -->

<svg
   xmlns:dc="http://purl.org/dc/elements/1.1/"
   xmlns:cc="http://creativecommons.org/ns#"
   xmlns:rdf="http://www.w3.org/1999/02/22-rdf-syntax-ns#"
   xmlns:svg="http://www.w3.org/2000/svg"
   xmlns="http://www.w3.org/2000/svg"
   xmlns:sodipodi="http://sodipodi.sourceforge.net/DTD/sodipodi-0.dtd"
   xmlns:inkscape="http://www.inkscape.org/namespaces/inkscape"
   id="svg2"
   version="1.1"
   inkscape:version="0.48.1 r9760"
   width="480.11874"
   height="145.23625"
   xml:space="preserve"
   sodipodi:docname="Dossier_Presse_D.pdf"><metadata
     id="metadata8"><rdf:RDF><cc:Work
         rdf:about=""><dc:format>image/svg+xml</dc:format><dc:type
           rdf:resource="http://purl.org/dc/dcmitype/StillImage" /><dc:title></dc:title></cc:Work></rdf:RDF></metadata><defs
     id="defs6"><clipPath
       clipPathUnits="userSpaceOnUse"
       id="clipPath20"><path
         d="m 0,841.945 594.96,0 0,-841.89 -594.96,0 0,841.89 z"
         id="path22"
         inkscape:connector-curvature="0" /></clipPath><clipPath
       clipPathUnits="userSpaceOnUse"
       id="clipPath80"><path
         d="m 541.28,263.646 -384.095,0 0,-116.189 384.095,0 0,116.189 z"
         id="path82"
         inkscape:connector-curvature="0" /></clipPath></defs><sodipodi:namedview
     pagecolor="#ffffff"
     bordercolor="#666666"
     borderopacity="1"
     objecttolerance="10"
     gridtolerance="10"
     guidetolerance="10"
     inkscape:pageopacity="0"
     inkscape:pageshadow="2"
     inkscape:window-width="1043"
     inkscape:window-height="684"
     id="namedview4"
     showgrid="false"
     fit-margin-top="0"
     fit-margin-left="0"
     fit-margin-right="0"
     fit-margin-bottom="0"
     inkscape:zoom="0.49786223"
     inkscape:cx="203.22849"
     inkscape:cy="83.417262"
     inkscape:window-x="0"
     inkscape:window-y="0"
     inkscape:window-maximized="0"
     inkscape:current-layer="g76" /><g
     id="g10"
     inkscape:groupmode="layer"
     inkscape:label="Dossier_Presse_D"
     transform="matrix(1.25,0,0,-1.25,-140.24079,409.90101)"><g
       id="g76"
       transform="translate(-44.992366,64.274809)"><g
         id="g78"
         clip-path="url(#clipPath80)"><g
           id="g84"
           transform="translate(327.256,177.318)"><path
             d="m 0,0 c -1.918,-0.895 -4.009,-1.674 -6.517,-1.674 -2.515,0 -4.067,1.67 -4.067,4.204 0,3.224 3.106,4.988 6.872,5.581 L 0,8.771 0,0 z m 8.486,-2.45 -0.415,11.955 0,7.717 c 0,8.187 -6.879,9.264 -11.783,9.264 -5.137,0 -10.286,-2.691 -12.731,-4.425 l 0.898,-2.331 c 3.108,0.839 6.037,1.251 8.19,1.251 C -2.453,20.981 0,19.434 0,15.37 l 0,-3.906 -5.268,-0.598 c -6.451,-0.776 -13.51,-2.803 -13.51,-10.667 0,-4.186 3.114,-7.609 8.132,-7.609 5.198,0 8.609,2.988 10.758,5.621 0.24,-3.471 1.382,-5.561 5.748,-5.561 2.328,0 5.976,1.554 7.828,3.285 l -0.236,1.615 -4.966,0 z m 152.278,21.763 c 0,2.329 1.795,3.827 5.016,3.827 5.871,0 7.163,-3.231 7.999,-6.877 l 1.976,-0.177 1.016,7.95 c -3.523,1.796 -6.538,2.507 -10.391,2.507 -6.691,0 -12.61,-4.001 -12.61,-10.223 0,-11.177 16.872,-10.398 16.872,-15.96 0,-2.748 -2.288,-4.305 -5.581,-4.305 -4.638,0 -7.673,3.228 -8.453,7.891 l -2.328,0.059 -0.537,-8.848 c 3.581,-1.61 6.989,-2.563 11.203,-2.563 6.159,0 13.647,2.92 13.647,10.754 0,10.343 -17.829,9.565 -17.829,15.965 z m -21.113,14.229 c 2.662,0 4.808,2.154 4.808,4.813 0,2.658 -2.146,4.813 -4.808,4.813 -2.658,0 -4.82,-2.155 -4.82,-4.813 0,-2.659 2.162,-4.813 4.82,-4.813 z m 52.673,-20.746 c 0.176,7.054 3.051,10.283 6.877,10.283 4.415,0 6.095,-4.242 6.095,-10.283 l -12.972,0 z m 21.7,-1.795 c 0,8.49 -4.065,15.602 -13.453,15.602 -9.927,0 -16.698,-8.649 -16.698,-18.097 0,-9.719 5.94,-15.916 16.759,-15.916 5.565,0 10.402,2.327 12.972,5.379 l -0.892,2.029 c -3.588,-0.834 -6.876,-1.229 -9.096,-1.229 -6.276,0 -10.696,2.667 -11.233,10.798 l 21.641,0 0,1.434 z m -70.071,-12.551 -0.118,10.998 0,14.347 c 0,2.094 -0.957,2.629 -2.811,2.629 -2.868,0 -7.593,-0.596 -10.825,-1.315 l 0,-2.748 5.502,0 0,-12.913 -0.176,-10.581 c 0,-1.317 -0.538,-2.332 -1.613,-2.693 l -3.649,-1.136 c 0,-0.776 0.119,-1.136 0.237,-1.912 l 18.534,0 c 0.3,0.776 0.361,1.493 0.361,2.093 l -4.426,1.074 c -0.657,0.178 -1.016,0.6 -1.016,2.157 z m -33.067,-2.038 c -6.459,0 -8.125,6.579 -8.125,13.634 0,6.453 1.61,12.734 7.229,12.734 6.348,0 7.714,-6.339 7.714,-13.872 0,-6.215 -1.07,-12.496 -6.818,-12.496 z m -0.415,30.074 c -9.149,0 -16.385,-8.847 -16.385,-17.578 0,-11.358 5.983,-16.318 15.847,-16.318 9.445,0 16.561,8.846 16.561,17.515 0,11.178 -5.384,16.381 -16.023,16.381 z M 78.459,9.867 78.28,-0.238 c -1.49,-0.483 -3.346,-1.253 -5.501,-1.253 -4.539,0 -7.708,3.405 -7.708,10.937 0,8.79 2.272,13.034 8.426,13.034 2.335,0 3.713,-0.543 4.962,-0.957 l 0,-11.656 z m 8.376,-12.317 -0.242,12.255 0,31.985 c 0,2.392 -0.842,2.991 -3.107,2.991 -2.812,0 -7.297,-0.599 -10.526,-1.261 l 0,-2.809 5.499,0 0,-15.003 c -1.434,0.241 -2.868,0.417 -5.142,0.417 -9.384,0 -16.863,-6.929 -16.863,-17.932 0,-12.555 6.461,-15.603 12.917,-15.603 4.065,0 6.997,2.329 9.027,4.6 0,-2.209 0.781,-4.6 3.821,-4.6 4.426,0 7.419,1.495 9.993,2.924 l -0.418,2.036 -4.959,0 z m -38.473,0 -0.304,11.836 0,13.69 c 0,2.335 -1.495,3.348 -3.822,3.348 -2.869,0 -6.343,-0.773 -9.267,-1.609 l 0,-2.393 4.96,0 0,-12.974 -0.181,-8.971 c -1.855,-0.834 -4.296,-1.97 -7.778,-1.97 -3.981,0 -4.535,2.898 -4.597,6.367 l 0,18.262 c 0,2.275 -1.316,3.288 -3.765,3.288 -2.81,0 -6.22,-0.716 -9.508,-1.609 l 0,-2.393 5.085,0 0,-18.77 c 0,-5.617 0.653,-11.062 9.507,-11.062 4.662,0 8.07,2.624 11.12,5.617 0.062,-3.467 1.731,-5.496 4.903,-5.496 3.943,0 6.812,1.846 8.967,3.167 l -0.181,1.672 -5.139,0 z m -78.671,26.186 2.724,-0.899 c 0.776,-0.3 1.252,-0.898 1.252,-1.911 0,-0.538 -0.116,-1.134 -0.355,-1.854 l -7.716,-19.608 -8.372,26.304 -11.778,0 c -0.238,-0.717 -0.095,-1.77 0.049,-2.33 2.804,-0.966 3.725,-0.735 4.717,-3.339 l 10.126,-28.583 5.977,1.731 10.407,24.87 c 1.075,2.745 2.21,5.019 3.224,6.157 0.066,0.238 0.066,1.256 0.066,1.494 l -10.257,0 c -0.176,-0.717 -0.176,-1.256 -0.064,-2.032 z M -83.078,12.11 c -3.731,-5.562 -8.461,-8.149 -12.5,-8.147 -0.262,0 -0.522,0.011 -0.785,0.033 -9.904,0.79 -17.172,14.007 -20.014,19.166 1.874,4.556 5.021,11.978 9.346,18.522 4.376,6.636 9.961,12.329 16.542,13.318 0.566,0.088 1.122,0.128 1.657,0.128 3.839,-0.002 6.86,-2.129 8.961,-5.364 2.098,-3.233 3.235,-7.561 3.235,-11.819 0,-11.764 -2.719,-20.279 -6.442,-25.837 z m -44.526,-6.517 c -1.73,-3.396 -6.082,-10.332 -12.806,-11.801 -0.788,-0.174 -1.627,-0.263 -2.505,-0.263 -6.036,0.005 -13.533,4.197 -15.129,12.873 -0.198,1.072 -0.297,2.179 -0.297,3.293 0.008,6.261 3.182,12.738 10.648,15.122 1.222,0.389 2.416,0.574 3.582,0.574 7.128,0.026 13.422,-7.066 17.319,-18.087 -0.11,-0.256 -0.377,-0.871 -0.812,-1.711 z m 52.913,77.074 c -1.572,2.364 -3.655,3.668 -6.05,3.661 -3.637,-0.013 -7.796,-2.889 -12.206,-8.859 -7.449,-10.113 -15.674,-29.237 -25.059,-51.507 -3.71,6.397 -12.363,15.692 -24.708,15.705 -3.048,0 -6.303,-0.568 -9.748,-1.886 -13.195,-5.045 -17.613,-17.239 -17.609,-25.444 0,-13.953 10.568,-25.501 23.276,-25.756 0.137,-0.005 0.273,-0.005 0.408,-0.005 7.561,0 12.906,4.131 16.324,8.22 2.473,2.953 3.965,5.897 4.609,7.319 5.128,-12.46 10.556,-22.552 14.356,-27.331 3.425,-4.292 7.099,-6.641 10.731,-6.645 l 0.005,0 c 3.436,0 6.706,2.139 9.483,6.451 7.53,11.66 12.734,29.265 16.496,46.172 2.217,10.001 3.721,24.016 3.721,36.309 0,4.862 -0.236,9.453 -0.757,13.42 -0.582,4.391 -1.695,7.812 -3.272,10.176"
             style="fill:#00a650;fill-opacity:1;fill-rule:nonzero;stroke:none"
             id="path86"
             inkscape:connector-curvature="0" /></g></g></g></g></svg>